<?xml version="1.0" standalone="no"?>
<!DOCTYPE svg PUBLIC "-//W3C//DTD SVG 20010904//EN"
 "http://www.w3.org/TR/2001/REC-SVG-20010904/DTD/svg10.dtd">
<svg version="1.0" xmlns="http://www.w3.org/2000/svg"
 width="512.000000pt" height="512.000000pt" viewBox="0 0 512.000000 512.000000"
 preserveAspectRatio="xMidYMid meet">
<metadata>
Created by potrace 1.14, written by Peter Selinger 2001-2017
</metadata>
<g transform="translate(0.000000,512.000000) scale(0.100000,-0.100000)"
fill="#000000" stroke="none">
<path d="M2379 5116 c-2 -2 -40 -6 -83 -10 -44 -4 -82 -8 -85 -10 -3 -2 -31
-7 -61 -11 -30 -3 -75 -11 -100 -17 -25 -5 -56 -12 -70 -14 -48 -10 -197 -54
-286 -85 -398 -140 -788 -408 -1064 -729 -64 -74 -76 -89 -143 -180 -208 -280
-367 -643 -436 -995 -40 -200 -46 -267 -45 -515 0 -184 3 -241 19 -345 3 -16
7 -43 9 -60 37 -265 165 -623 307 -860 10 -16 27 -46 38 -65 19 -36 131 -195
166 -239 246 -301 506 -518 820 -685 228 -122 538 -225 781 -261 22 -4 50 -8
64 -11 103 -19 473 -26 600 -12 147 17 153 18 250 38 30 6 66 13 80 16 111 21
368 110 505 175 656 311 1151 881 1364 1574 78 254 105 448 106 740 0 193 -3
251 -16 330 -4 28 -10 66 -13 85 -2 19 -9 58 -15 85 -6 28 -13 61 -15 75 -31
156 -115 389 -206 572 -335 671 -954 1167 -1680 1344 -58 14 -116 28 -130 30
-70 11 -86 14 -195 30 -44 6 -460 15 -466 10z m446 -1090 c17 -3 48 -8 70 -12
58 -8 150 -32 225 -59 452 -158 808 -572 890 -1035 5 -30 12 -71 16 -90 8 -44
8 -293 -1 -340 -22 -127 -28 -159 -46 -218 -120 -397 -410 -721 -788 -881
-227 -96 -498 -126 -766 -86 -146 22 -358 104 -495 190 l-40 25 -296 -115
c-163 -64 -299 -114 -301 -112 -2 2 48 138 112 301 l115 296 -26 42 c-184 291
-250 667 -178 1012 71 346 286 661 587 865 112 76 318 163 449 190 93 20 102
21 168 27 36 4 66 7 67 8 5 4 210 -3 238 -8z"/>
<path d="M2125 3402 c-141 -60 -158 -71 -188 -112 -143 -200 16 -595 389 -965
275 -275 561 -436 774 -438 169 -2 222 40 304 243 35 86 39 123 16 153 -11 13
-87 63 -171 112 -192 110 -204 110 -284 2 -42 -57 -148 -85 -219 -57 -63 24
-259 204 -357 329 -93 117 -78 238 38 322 71 51 70 82 -10 219 -28 50 -63 111
-77 136 -58 101 -89 109 -215 56z"/>
</g>
</svg>
